<?xml version="1.0" standalone="no"?>
<!DOCTYPE svg PUBLIC "-//W3C//DTD SVG 20010904//EN"
 "http://www.w3.org/TR/2001/REC-SVG-20010904/DTD/svg10.dtd">
<svg version="1.0" xmlns="http://www.w3.org/2000/svg"
 width="640.000000pt" height="640.000000pt" viewBox="0 0 640.000000 640.000000"
 preserveAspectRatio="xMidYMid meet">

<g transform="translate(0.000000,640.000000) scale(0.100000,-0.100000)"
fill="#000000" stroke="none">
<path d="M3046 5110 c-442 -70 -795 -385 -907 -809 -140 -535 145 -1095 663
-1300 239 -95 557 -95 796 0 386 153 649 501 693 918 57 545 -320 1059 -863
1177 -88 19 -300 26 -382 14z"/>
<path d="M2280 3017 c-404 -199 -712 -537 -880 -961 -65 -166 -120 -441 -120
-604 0 -78 20 -120 72 -152 33 -20 55 -20 1848 -20 1793 0 1815 0 1848 20 75
46 86 110 56 341 -67 516 -349 970 -784 1261 -100 66 -295 168 -322 168 -8 0
-45 -23 -83 -51 -191 -140 -470 -229 -715 -229 -246 0 -523 89 -715 229 -38
28 -76 51 -85 51 -8 0 -62 -24 -120 -53z"/>
</g>
</svg>
